<?xml version="1.0" encoding="utf-8"?>
<!-- Generator: Adobe Illustrator 16.2.0, SVG Export Plug-In . SVG Version: 6.00 Build 0)  -->
<!DOCTYPE svg PUBLIC "-//W3C//DTD SVG 1.1//EN" "http://www.w3.org/Graphics/SVG/1.1/DTD/svg11.dtd">
<svg version="1.1" id="Layer_11" xmlns="http://www.w3.org/2000/svg" xmlns:xlink="http://www.w3.org/1999/xlink" x="0px" y="0px"
	 width="100px" height="100px" viewBox="0 0 100 100" enable-background="new 0 0 100 100" xml:space="preserve">
<path fill="#FFFFFF" d="M30.023,20.763c0-6.27,5.083-11.353,11.354-11.353c6.27,0,11.354,5.083,11.354,11.353
	s-5.083,11.353-11.354,11.353C35.106,32.116,30.023,27.033,30.023,20.763z M46.833,39.851c0.114-2.472,0.965-4.76,2.334-6.652
	c-0.961-0.201-1.954-0.308-2.973-0.308h-9.633c-1.016,0-2.008,0.106-2.964,0.305c1.457,2.021,2.329,4.489,2.343,7.161
	c1.771-0.974,3.803-1.529,5.962-1.529C43.653,38.828,45.32,39.193,46.833,39.851z M48.755,40.87c3.298,2.068,5.61,5.566,6.033,9.628
	c1.344,0.628,2.837,0.99,4.419,0.99c5.777,0,10.46-4.683,10.46-10.46c0-5.778-4.683-10.46-10.46-10.46
	C53.482,30.568,48.842,35.167,48.755,40.87z M41.902,62.288c5.776,0,10.459-4.685,10.459-10.46c0-5.776-4.683-10.46-10.459-10.46
	c-5.777,0-10.462,4.684-10.462,10.46C31.44,57.604,36.125,62.288,41.902,62.288z M46.339,63h-8.875
	c-7.385,0-13.394,6.009-13.394,13.395V87.25l0.028,0.17l0.747,0.232c7.048,2.201,13.171,2.938,18.211,2.938
	c9.842,0,15.549-2.807,15.901-2.986l0.699-0.354h0.074V76.395C59.73,69.009,53.725,63,46.339,63z M63.646,52.202h-8.809
	c-0.096,3.524-1.6,6.698-3.979,8.979c6.564,1.952,11.367,8.039,11.367,15.229v3.345c8.695-0.32,13.707-2.783,14.037-2.949
	l0.699-0.355h0.074V65.594C77.038,58.21,71.029,52.202,63.646,52.202z M66.001,30.345c3.298,2.068,5.61,5.566,6.032,9.628
	c1.344,0.628,2.837,0.99,4.419,0.99c5.778,0,10.461-4.683,10.461-10.459c0-5.778-4.683-10.46-10.461-10.46
	C70.729,20.043,66.088,24.643,66.001,30.345z M80.891,41.677h-8.807c-0.096,3.524-1.6,6.698-3.979,8.979
	c6.564,1.951,11.367,8.039,11.367,15.229v3.345c8.694-0.319,13.707-2.782,14.037-2.949l0.698-0.354h0.075V55.068
	C94.284,47.685,88.275,41.677,80.891,41.677z M23.548,51.488c2.046,0,3.949-0.598,5.563-1.615c0.513-3.344,2.306-6.267,4.866-8.257
	c0.011-0.196,0.029-0.39,0.029-0.588c0-5.778-4.684-10.46-10.458-10.46c-5.779,0-10.461,4.682-10.461,10.46
	C13.087,46.806,17.769,51.488,23.548,51.488z M32.942,61.182c-2.368-2.271-3.867-5.427-3.977-8.931
	c-0.326-0.024-0.649-0.049-0.982-0.049h-8.874c-7.386,0-13.394,6.008-13.394,13.394v10.855l0.027,0.169l0.748,0.233
	c5.653,1.768,10.7,2.58,15.083,2.834V76.41C21.574,69.221,26.376,63.133,32.942,61.182z"/>
</svg>
