<?xml version="1.0" encoding="utf-8"?>
<!-- Generator: Adobe Illustrator 16.2.0, SVG Export Plug-In . SVG Version: 6.00 Build 0)  -->
<!DOCTYPE svg PUBLIC "-//W3C//DTD SVG 1.1//EN" "http://www.w3.org/Graphics/SVG/1.1/DTD/svg11.dtd">
<svg version="1.1" id="Layer_1" xmlns="http://www.w3.org/2000/svg" xmlns:xlink="http://www.w3.org/1999/xlink" x="0px" y="0px"
	 width="36px" height="36px" viewBox="0 0 36 36" enable-background="new 0 0 36 36" xml:space="preserve">
<g>
	<path fill="#FFFFFF" d="M19.66,31.563c0.982-2.17,1.168-4.097,1.48-5.888l1.666-2.852c0.645-0.042,2.442-0.206,3.08-0.779
		l0.018-0.015c0.299-0.276,0.455-0.567,0.459-0.863c0.01-0.305-0.133-0.6-0.434-0.898c-0.025-0.024-0.052-0.047-0.08-0.069
		c-0.271-0.216-0.722-0.362-1.146-0.231c0.032-0.441-0.209-0.853-0.476-1.064c-0.026-0.023-0.059-0.045-0.086-0.063
		c-0.36-0.229-0.678-0.306-0.975-0.231c-0.289,0.072-0.547,0.293-0.752,0.658c-0.49,0.869-0.084,3.174-0.035,3.432
		c0.004,0.023,0.023,0.043,0.037,0.063l-1.09,1.374c0.09-1.22,0.018-2.388-0.211-3.538l1.238-4.89
		c0.473-0.171,2.082-0.792,2.496-1.469l0.012-0.018c0.186-0.311,0.242-0.598,0.172-0.85c-0.068-0.263-0.266-0.479-0.598-0.656
		c-0.029-0.016-0.056-0.028-0.086-0.038c-0.285-0.117-0.705-0.128-1.033,0.091c-0.082-0.385-0.394-0.672-0.674-0.785
		c-0.029-0.015-0.062-0.025-0.088-0.033c-0.365-0.104-0.656-0.088-0.89,0.049c-0.229,0.135-0.392,0.388-0.474,0.752
		c-0.198,0.863,0.732,2.725,0.839,2.931c0,0.003,0.004,0.004,0.006,0.005l-1.347,3.275c-0.325-1.009-0.771-2.022-1.323-3.063
		l1.155-4.566c0.093-0.04,3.347-1.475,4.004-2.799l0.013-0.031c0.254-0.522,0.308-0.992,0.155-1.388
		c-0.143-0.406-0.485-0.727-1.045-0.962c-0.049-0.023-0.092-0.038-0.146-0.056c-0.471-0.143-1.146-0.101-1.644,0.294
		c-0.186-0.602-0.721-1.02-1.192-1.16c-0.051-0.019-0.099-0.034-0.146-0.041c-0.602-0.117-1.063-0.054-1.414,0.201
		c-0.35,0.247-0.569,0.675-0.655,1.271c-0.193,1.408,1.563,4.268,1.762,4.58c0.011,0.014,0.029,0.02,0.039,0.031l-1.473,3.587
		c-0.132-0.221-0.259-0.44-0.398-0.664c-0.33-0.53-0.697-1.075-1.08-1.627c0.002-0.003,0.004-0.004,0.004-0.006
		c0.004-0.028,0.402-2.682-0.176-3.629l-0.014-0.02c-0.23-0.366-0.502-0.583-0.811-0.647c-0.313-0.07-0.65,0.02-1.02,0.278
		c-0.031,0.021-0.059,0.041-0.09,0.069c-0.279,0.238-0.518,0.679-0.465,1.146c-0.451-0.12-0.928,0.051-1.201,0.29
		c-0.031,0.024-0.061,0.049-0.084,0.075c-0.311,0.332-0.453,0.648-0.434,0.969c0.02,0.317,0.199,0.626,0.541,0.914
		c0.709,0.596,2.707,0.689,3.375,0.704c0.613,1.739,1.348,3.603,1.838,5.433L15.79,15.72c0.008-0.008,0.018-0.011,0.023-0.021
		c0.014-0.022,0.016-0.05,0.01-0.07c-0.004-0.017-0.346-1.502-0.85-1.882l-0.01-0.008c-0.199-0.146-0.387-0.204-0.563-0.174
		c-0.182,0.028-0.342,0.146-0.482,0.36c-0.014,0.018-0.023,0.034-0.033,0.055c-0.098,0.184-0.133,0.467-0.008,0.703
		c-0.264,0.031-0.479,0.221-0.574,0.404c-0.012,0.019-0.021,0.038-0.027,0.058c-0.096,0.239-0.105,0.436-0.027,0.602
		c0.074,0.164,0.234,0.29,0.477,0.37c0.48,0.162,1.492-0.171,1.883-0.313l3.344,3.617l0.107,0.009
		c0.139,0.717,0.233,1.424,0.233,2.104c-0.065,0.811-3.605-1.736-6.016-3.389c-0.051-0.219-0.537-2.199-1.24-2.731l-0.018-0.012
		c-0.291-0.216-0.57-0.301-0.828-0.256c-0.268,0.043-0.502,0.216-0.711,0.53c-0.018,0.026-0.035,0.052-0.049,0.081
		c-0.143,0.271-0.195,0.689-0.01,1.037c-0.391,0.045-0.707,0.324-0.848,0.595c-0.018,0.027-0.031,0.056-0.041,0.084
		C9.398,17.826,9.387,18.116,9.5,18.36c0.111,0.242,0.346,0.428,0.701,0.544c0.682,0.229,2.08-0.213,2.701-0.434
		c1.25,1.762,2.803,3.022,4.711,3.801c1.348,0.554,1.696,1.324,1.411,2.611c-0.344,1.53-0.568,3.098-1.029,4.59
		c-0.453,1.457-1.279,2.398-2.732,2.709l6.796-0.048C21.813,32.094,20.227,31.423,19.66,31.563z M22.717,19.432
		c0.156-0.272,0.338-0.442,0.537-0.492c0.201-0.049,0.434,0.011,0.709,0.188c0.018,0.013,0.035,0.024,0.053,0.038
		c0.226,0.184,0.496,0.631,0.26,1.064c-0.041,0.072-0.022,0.166,0.043,0.219c0.064,0.052,0.158,0.05,0.22-0.006
		c0.375-0.326,0.871-0.16,1.099,0.021c0.02,0.019,0.036,0.032,0.051,0.047c0.231,0.229,0.342,0.44,0.338,0.646
		c-0.006,0.2-0.123,0.405-0.349,0.612l-0.02,0.02c-0.408,0.368-1.564,0.58-2.64,0.672l1.015-1.734l-1.347,1.695
		C22.512,21.338,22.422,19.958,22.717,19.432z M21.494,12.813c0.063-0.271,0.174-0.463,0.332-0.554
		c0.158-0.094,0.371-0.103,0.65-0.021c0.018,0.007,0.037,0.014,0.055,0.021c0.238,0.099,0.582,0.41,0.49,0.84
		c-0.017,0.073,0.021,0.147,0.092,0.176c0.07,0.027,0.148,0.002,0.186-0.06c0.236-0.373,0.701-0.357,0.939-0.261
		c0.021,0.01,0.039,0.019,0.057,0.027c0.254,0.135,0.4,0.289,0.449,0.465c0.047,0.172-0.002,0.376-0.141,0.61l-0.013,0.02
		c-0.26,0.428-1.229,0.913-2.143,1.265l0.436-1.713l-0.688,1.676C21.783,14.433,21.377,13.324,21.494,12.813z M18.941,6.721
		c0.063-0.443,0.217-0.759,0.457-0.931c0.24-0.174,0.582-0.219,1.043-0.126c0.026,0.006,0.063,0.014,0.088,0.025
		c0.395,0.121,0.988,0.575,0.902,1.277c-0.013,0.121,0.059,0.229,0.174,0.267s0.235-0.019,0.289-0.119
		c0.326-0.636,1.071-0.675,1.475-0.554c0.031,0.02,0.061,0.026,0.088,0.036c0.426,0.185,0.686,0.409,0.787,0.68
		s0.051,0.606-0.139,1.001L24.09,8.312c-0.369,0.746-1.953,1.698-3.406,2.4l0.313-1.234l-0.517,1.254
		C19.682,9.38,18.83,7.583,18.941,6.721z M13.789,11.728c-0.252-0.216-0.395-0.436-0.402-0.655c-0.018-0.219,0.09-0.451,0.33-0.704
		c0.016-0.015,0.033-0.033,0.053-0.048c0.232-0.196,0.75-0.394,1.158-0.061c0.07,0.058,0.168,0.058,0.238-0.002
		c0.068-0.06,0.08-0.156,0.035-0.229c-0.268-0.454,0.002-0.94,0.236-1.144c0.023-0.015,0.041-0.029,0.057-0.042
		c0.285-0.194,0.529-0.268,0.742-0.227c0.209,0.046,0.398,0.21,0.572,0.483l0.016,0.025c0.314,0.514,0.297,1.829,0.17,2.998
		c-0.166-0.233-0.322-0.462-0.496-0.701c0.094,0.298,0.205,0.612,0.313,0.92C15.664,12.304,14.27,12.128,13.789,11.728z
		 M13.793,15.922c-0.178-0.062-0.299-0.149-0.35-0.263c-0.055-0.111-0.045-0.257,0.027-0.44c0.006-0.012,0.012-0.024,0.018-0.036
		c0.084-0.152,0.316-0.364,0.602-0.273c0.047,0.016,0.1-0.006,0.125-0.051c0.021-0.046,0.01-0.1-0.029-0.13
		c-0.236-0.185-0.195-0.496-0.113-0.652c0.01-0.013,0.016-0.025,0.021-0.035c0.109-0.162,0.225-0.251,0.344-0.273
		c0.121-0.02,0.256,0.027,0.404,0.137l0.014,0.01c0.285,0.215,0.564,0.976,0.74,1.645l-0.84-0.684l0.703,0.761
		C14.855,15.846,14.121,16.031,13.793,15.922z M10.295,18.618c-0.264-0.091-0.441-0.22-0.518-0.387
		c-0.076-0.166-0.064-0.379,0.043-0.649c0.01-0.018,0.018-0.035,0.025-0.053c0.123-0.227,0.467-0.538,0.885-0.404
		c0.072,0.023,0.148-0.008,0.186-0.075c0.033-0.066,0.016-0.146-0.043-0.189c-0.348-0.272-0.287-0.733-0.166-0.962
		c0.012-0.02,0.021-0.037,0.033-0.053c0.158-0.239,0.326-0.37,0.506-0.401c0.176-0.03,0.375,0.039,0.594,0.2l0.02,0.014
		c0.395,0.297,0.775,1.291,1.037,2.222c-0.238-0.161-0.465-0.313-0.666-0.445c0.156,0.27,0.32,0.526,0.486,0.775
		C11.834,18.516,10.77,18.775,10.295,18.618z"/>
	<path fill="#FFFFFF" d="M25.826,26.811c-0.715-0.479-2.113-0.687-2.268-0.707c-0.023-0.004-0.041,0.002-0.05,0.018
		c-0.01,0.015-0.006,0.039,0.009,0.063c0.008,0.018,0.805,1.611,1.491,2.233l0.015,0.013c0.27,0.243,0.506,0.396,0.701,0.461
		c0.205,0.065,0.356,0.036,0.465-0.092c0.01-0.012,0.018-0.021,0.021-0.037c0.063-0.125,0.028-0.376-0.181-0.668
		c0.302,0.111,0.498,0.042,0.562-0.082c0.011-0.013,0.015-0.025,0.019-0.039c0.045-0.18,0.004-0.363-0.131-0.561
		C26.346,27.215,26.127,27.012,25.826,26.811z M26.367,27.801c-0.004,0.01-0.008,0.018-0.012,0.025
		c-0.056,0.104-0.271,0.184-0.625-0.053c-0.06-0.039-0.115-0.047-0.129-0.017c-0.017,0.03,0.012,0.089,0.065,0.138
		c0.324,0.299,0.358,0.576,0.308,0.681c-0.007,0.009-0.011,0.017-0.019,0.022c-0.08,0.098-0.188,0.125-0.326,0.08
		c-0.133-0.043-0.301-0.156-0.504-0.339l-0.019-0.016c-0.396-0.361-0.936-1.25-1.321-1.984c0.666,0.106,1.575,0.329,2.016,0.624
		c0.226,0.151,0.39,0.299,0.479,0.434C26.373,27.531,26.402,27.664,26.367,27.801z"/>
	<path fill="#FFFFFF" d="M27.963,23.545c-0.008-0.005-0.014-0.006-0.021-0.006c-0.065-0.021-0.18,0.021-0.299,0.146
		c0.025-0.153-0.024-0.24-0.092-0.26c-0.004-0.002-0.014-0.005-0.02-0.005c-0.088-0.005-0.174,0.034-0.254,0.113
		c-0.08,0.081-0.158,0.204-0.226,0.364c-0.161,0.383-0.133,1.063-0.131,1.139c0.002,0.012,0.004,0.02,0.015,0.021
		c0.012,0.002,0.02,0,0.03-0.011c0.009-0.005,0.688-0.528,0.923-0.911l0.004-0.007c0.092-0.149,0.143-0.276,0.153-0.375
		C28.059,23.652,28.031,23.586,27.963,23.545z M27.84,24.089l-0.006,0.013c-0.133,0.219-0.506,0.557-0.816,0.806
		c-0.014-0.325,0.01-0.775,0.107-1.009c0.053-0.123,0.109-0.213,0.162-0.269c0.057-0.057,0.119-0.083,0.188-0.077
		c0.002,0,0.004,0,0.01,0.002c0.056,0.018,0.113,0.111,0.033,0.301c-0.014,0.033-0.012,0.061,0.004,0.063
		c0.017,0.006,0.041-0.014,0.06-0.042c0.11-0.183,0.239-0.224,0.293-0.207c0.006,0.002,0.01,0.002,0.017,0.004
		c0.053,0.03,0.073,0.081,0.065,0.147C27.945,23.889,27.908,23.977,27.84,24.089z"/>
	<path fill="#FFFFFF" d="M24.672,17.309c-0.002,0.011,0.002,0.019,0.012,0.029c0.006,0.007,0.603,0.627,1.008,0.815l0.009,0.003
		c0.157,0.075,0.288,0.112,0.389,0.113c0.104-0.001,0.168-0.035,0.201-0.107c0.004-0.007,0.004-0.015,0.002-0.021
		c0.017-0.067-0.039-0.177-0.176-0.282c0.153,0.008,0.233-0.052,0.245-0.119c0.002-0.005,0.005-0.015,0.002-0.019
		c-0.004-0.09-0.053-0.17-0.139-0.24c-0.09-0.072-0.221-0.135-0.389-0.185c-0.396-0.118-1.07-0.014-1.145-0.004
		C24.68,17.296,24.672,17.299,24.672,17.309z M25.846,17.369c0.129,0.038,0.225,0.084,0.285,0.132
		c0.061,0.049,0.094,0.107,0.096,0.177c0,0.002,0.002,0.005,0,0.011c-0.01,0.055-0.098,0.123-0.295,0.065
		c-0.035-0.011-0.063-0.005-0.063,0.012c-0.002,0.014,0.02,0.037,0.049,0.053c0.193,0.091,0.25,0.214,0.238,0.269
		c-0.002,0.005,0,0.01-0.004,0.015c-0.021,0.057-0.07,0.083-0.137,0.085c-0.07-0.003-0.162-0.03-0.281-0.086l-0.014-0.005
		c-0.232-0.108-0.607-0.442-0.89-0.724C25.154,17.324,25.604,17.298,25.846,17.369z"/>
</g>
</svg>
